Coordinates
version=1
nRows=27
nColumns=12
inDegrees=yes

Units are S.I. units (second, meters, Newtons, ...)
Angles are in degrees

endheader
time	SC_y	SC_z	SC_x	AC_y	AC_z	AC_x	GH_y	GH_z	GH_yy	EL_x	PS_y
       0.0              -39.18          6.834           54.7           40.2          2.171          12.27          141.9          50.31          74.92          89.98          59.17
   0.01289              -39.18          6.836           54.7           40.2           2.17          12.26          141.8          50.31          74.91          89.98          59.16
   0.02577              -39.17          6.839          54.71           40.2          2.169          12.26          141.8           50.3           74.9          89.99          59.15
   0.03866              -39.17          6.842          54.71           40.2          2.168          12.26          141.8          50.29          74.89          89.99          59.15
   0.05154              -39.17          6.844          54.72           40.2          2.167          12.25          141.7          50.28          74.88          89.99          59.14
   0.06443              -39.17          6.848          54.72           40.2          2.166          12.24          141.7          50.27          74.86           90.0          59.13
   0.07732              -39.17          6.851          54.72           40.2          2.165          12.24          141.7          50.26          74.85           90.0          59.12
    0.0902              -39.17          6.855          54.73           40.2          2.163          12.23          141.6          50.25          74.84          90.01           59.1
    0.1031              -39.17          6.859          54.74          40.19          2.162          12.23          141.6          50.24          74.82          90.01          59.09
     0.116              -39.17          6.863          54.74          40.19          2.161          12.22          141.5          50.23          74.81          90.02          59.08
    0.1289              -39.17          6.867          54.75          40.19          2.159          12.21          141.5          50.21          74.79          90.02          59.07
    0.1417              -39.17          6.872          54.75          40.19          2.157           12.2          141.4           50.2          74.77          90.03          59.05
    0.1546              -39.17          6.877          54.76          40.19          2.156          12.19          141.4          50.18          74.75          90.04          59.03
    0.1675              -39.17          6.883          54.77          40.19          2.154          12.18          141.3          50.17          74.73          90.04          59.02
    0.1804              -39.17          6.889          54.78          40.19          2.152          12.17          141.2          50.15          74.71          90.05           59.0
    0.1933              -39.16          6.896          54.79          40.18          2.149          12.16          141.2          50.13          74.69          90.06          58.98
    0.2062              -39.16          6.903           54.8          40.18          2.147          12.15          141.1          50.11          74.66          90.07          58.96
    0.2191              -39.16           6.91          54.81          40.18          2.144          12.13          141.0          50.08          74.63          90.08          58.93
    0.2319              -39.16          6.919          54.82          40.18          2.141          12.12          140.9          50.06           74.6          90.09          58.91
    0.2448              -39.16          6.928          54.83          40.18          2.138           12.1          140.8          50.03          74.57           90.1          58.88
    0.2577              -39.16          6.939          54.85          40.17          2.135          12.09          140.7           50.0          74.53          90.12          58.85
    0.2706              -39.15           6.95          54.87          40.17          2.131          12.07          140.6          49.97          74.49          90.13          58.81
    0.2835              -39.15          6.962          54.88          40.17          2.127          12.04          140.4          49.93          74.44          90.15          58.77
    0.2964              -39.15          6.976           54.9          40.16          2.122          12.02          140.3          49.89          74.39          90.17          58.73
    0.3093              -39.15          6.991          54.92          40.16          2.117          11.99          140.1          49.84          74.33          90.19          58.68
    0.3221              -39.14          7.008          54.95          40.15          2.111          11.96          139.9          49.79          74.27          90.21          58.63
     0.335              -39.14          7.028          54.98          40.15          2.104          11.93          139.7          49.73           74.2          90.24          58.57
